<svg width="30" height="26" viewBox="0 0 30 26" fill="none" xmlns="http://www.w3.org/2000/svg">
<path d="M12.5 24C12.5 24.3956 12.3827 24.7822 12.1629 25.1111C11.9432 25.44 11.6308 25.6964 11.2654 25.8478C10.8999 25.9991 10.4978 26.0387 10.1098 25.9616C9.72186 25.8844 9.36549 25.6939 9.08579 25.4142C8.80608 25.1345 8.6156 24.7781 8.53843 24.3902C8.46126 24.0022 8.50087 23.6001 8.65224 23.2346C8.80362 22.8692 9.05996 22.5568 9.38886 22.3371C9.71776 22.1173 10.1044 22 10.5 22C11.0304 22 11.5391 22.2107 11.9142 22.5858C12.2893 22.9609 12.5 23.4696 12.5 24ZM23.5 22C23.1044 22 22.7178 22.1173 22.3889 22.3371C22.06 22.5568 21.8036 22.8692 21.6522 23.2346C21.5009 23.6001 21.4613 24.0022 21.5384 24.3902C21.6156 24.7781 21.8061 25.1345 22.0858 25.4142C22.3655 25.6939 22.7219 25.8844 23.1098 25.9616C23.4978 26.0387 23.8999 25.9991 24.2654 25.8478C24.6308 25.6964 24.9432 25.44 25.1629 25.1111C25.3827 24.7822 25.5 24.3956 25.5 24C25.5 23.4696 25.2893 22.9609 24.9142 22.5858C24.5391 22.2107 24.0304 22 23.5 22ZM29.4562 6.29375L25.89 17.8825C25.7032 18.4968 25.3234 19.0346 24.8068 19.416C24.2903 19.7975 23.6646 20.0022 23.0225 20H11.0087C10.3575 19.9976 9.7245 19.7842 9.20463 19.3919C8.68477 18.9996 8.30598 18.4494 8.125 17.8237L3.6025 2H1.5C1.23478 2 0.98043 1.89464 0.792893 1.70711C0.605357 1.51957 0.5 1.26522 0.5 1C0.5 0.734784 0.605357 0.48043 0.792893 0.292893C0.98043 0.105357 1.23478 0 1.5 0H3.6025C4.03676 0.00144056 4.45888 0.143485 4.80567 0.404872C5.15246 0.666259 5.40526 1.03293 5.52625 1.45L6.54 5H28.5C28.6565 4.99994 28.8108 5.03661 28.9505 5.10706C29.0903 5.17751 29.2115 5.27976 29.3045 5.40561C29.3976 5.53145 29.4597 5.67737 29.4861 5.83163C29.5124 5.98588 29.5022 6.14417 29.4562 6.29375ZM27.1462 7H7.11125L10.0475 17.275C10.1072 17.4839 10.2334 17.6676 10.4068 17.7984C10.5802 17.9292 10.7915 18 11.0087 18H23.0225C23.2365 18.0001 23.4448 17.9315 23.617 17.8044C23.7891 17.6773 23.9159 17.4983 23.9788 17.2938L27.1462 7Z" fill="#F39C11"/>
</svg>
