<svg width="28" height="27" viewBox="0 0 28 27" fill="none" xmlns="http://www.w3.org/2000/svg">
<path d="M26.4805 12.4039L21.1953 17.0164L22.7785 23.8836C22.8623 24.2426 22.8384 24.6183 22.7098 24.9638C22.5812 25.3093 22.3536 25.6092 22.0555 25.826C21.7574 26.0429 21.4019 26.167 21.0336 26.183C20.6654 26.1989 20.3005 26.1059 19.9848 25.9156L13.9953 22.2828L8.01878 25.9156C7.70304 26.1059 7.33821 26.1989 6.96992 26.183C6.60162 26.167 6.24619 26.0429 5.94807 25.826C5.64994 25.6092 5.42235 25.3093 5.29375 24.9638C5.16515 24.6183 5.14125 24.2426 5.22503 23.8836L6.80589 17.0234L1.51956 12.4039C1.23996 12.1628 1.03778 11.8444 0.938373 11.4888C0.838967 11.1332 0.84676 10.7562 0.960774 10.405C1.07479 10.0539 1.28995 9.74416 1.57927 9.51478C1.8686 9.28539 2.21921 9.14654 2.58714 9.11562L9.5551 8.5121L12.275 2.0246C12.4171 1.68419 12.6566 1.39342 12.9636 1.18889C13.2706 0.984363 13.6312 0.875229 14 0.875229C14.3689 0.875229 14.7295 0.984363 15.0364 1.18889C15.3434 1.39342 15.583 1.68419 15.725 2.0246L18.4531 8.5121L25.4188 9.11562C25.7867 9.14654 26.1373 9.28539 26.4266 9.51478C26.716 9.74416 26.9311 10.0539 27.0451 10.405C27.1592 10.7562 27.1669 11.1332 27.0675 11.4888C26.9681 11.8444 26.766 12.1628 26.4864 12.4039H26.4805Z" fill="#F39C11"/>
</svg>
