<svg width="250" height="30" viewBox="0 0 250 30" fill="none" xmlns="http://www.w3.org/2000/svg">
<g clip-path="url(#clip0_1_108)">
<path d="M74 15C74 6.71572 67.2843 0 59 0C50.7157 0 44 6.71572 44 15C44 22.4868 49.4853 28.6925 56.6562 29.8178V19.3359H52.8477V15H56.6562V11.6953C56.6562 7.93594 58.8957 5.85938 62.322 5.85938C63.9626 5.85938 65.6797 6.15234 65.6797 6.15234V9.84375H63.7883C61.925 9.84375 61.3438 11.0001 61.3438 12.1875V15H65.5039L64.8389 19.3359H61.3438V29.8178C68.5147 28.6925 74 22.4868 74 15Z" fill="#FFF4D8"/>
</g>
<g clip-path="url(#clip1_1_108)">
<path d="M147 2.70117C151.008 2.70117 151.482 2.71875 153.059 2.78906C154.523 2.85352 155.314 3.09961 155.842 3.30469C156.539 3.57422 157.043 3.90234 157.564 4.42383C158.092 4.95117 158.414 5.44922 158.684 6.14648C158.889 6.67383 159.135 7.4707 159.199 8.92969C159.27 10.5117 159.287 10.9863 159.287 14.9883C159.287 18.9961 159.27 19.4707 159.199 21.0469C159.135 22.5117 158.889 23.3027 158.684 23.8301C158.414 24.5273 158.086 25.0313 157.564 25.5527C157.037 26.0801 156.539 26.4023 155.842 26.6719C155.314 26.877 154.518 27.123 153.059 27.1875C151.477 27.2578 151.002 27.2754 147 27.2754C142.992 27.2754 142.518 27.2578 140.941 27.1875C139.477 27.123 138.686 26.877 138.158 26.6719C137.461 26.4023 136.957 26.0742 136.436 25.5527C135.908 25.0254 135.586 24.5273 135.316 23.8301C135.111 23.3027 134.865 22.5059 134.801 21.0469C134.73 19.4648 134.713 18.9902 134.713 14.9883C134.713 10.9805 134.73 10.5059 134.801 8.92969C134.865 7.46484 135.111 6.67383 135.316 6.14648C135.586 5.44922 135.914 4.94531 136.436 4.42383C136.963 3.89648 137.461 3.57422 138.158 3.30469C138.686 3.09961 139.482 2.85352 140.941 2.78906C142.518 2.71875 142.992 2.70117 147 2.70117ZM147 0C142.928 0 142.418 0.0175781 140.818 0.0878906C139.225 0.158203 138.129 0.416016 137.18 0.785156C136.189 1.17187 135.352 1.68164 134.52 2.51953C133.682 3.35156 133.172 4.18945 132.785 5.17383C132.416 6.12891 132.158 7.21875 132.088 8.8125C132.018 10.418 132 10.9277 132 15C132 19.0723 132.018 19.582 132.088 21.1816C132.158 22.7754 132.416 23.8711 132.785 24.8203C133.172 25.8105 133.682 26.6484 134.52 27.4805C135.352 28.3125 136.189 28.8281 137.174 29.209C138.129 29.5781 139.219 29.8359 140.812 29.9062C142.412 29.9766 142.922 29.9941 146.994 29.9941C151.066 29.9941 151.576 29.9766 153.176 29.9062C154.77 29.8359 155.865 29.5781 156.814 29.209C157.799 28.8281 158.637 28.3125 159.469 27.4805C160.301 26.6484 160.816 25.8105 161.197 24.8262C161.566 23.8711 161.824 22.7813 161.895 21.1875C161.965 19.5879 161.982 19.0781 161.982 15.0059C161.982 10.9336 161.965 10.4238 161.895 8.82422C161.824 7.23047 161.566 6.13477 161.197 5.18555C160.828 4.18945 160.318 3.35156 159.48 2.51953C158.648 1.6875 157.811 1.17188 156.826 0.791016C155.871 0.421875 154.781 0.164062 153.188 0.09375C151.582 0.0175781 151.072 0 147 0Z" fill="#FFF4D8"/>
<path d="M147 7.29492C142.746 7.29492 139.295 10.7461 139.295 15C139.295 19.2539 142.746 22.7051 147 22.7051C151.254 22.7051 154.705 19.2539 154.705 15C154.705 10.7461 151.254 7.29492 147 7.29492ZM147 19.998C144.24 19.998 142.002 17.7598 142.002 15C142.002 12.2402 144.24 10.002 147 10.002C149.76 10.002 151.998 12.2402 151.998 15C151.998 17.7598 149.76 19.998 147 19.998Z" fill="#FFF4D8"/>
<path d="M156.809 6.99018C156.809 7.98627 156 8.78901 155.01 8.78901C154.014 8.78901 153.211 7.98041 153.211 6.99018C153.211 5.99408 154.02 5.19135 155.01 5.19135C156 5.19135 156.809 5.99994 156.809 6.99018Z" fill="#FFF4D8"/>
</g>
<path fill-rule="evenodd" clip-rule="evenodd" d="M30 15C30 23.2843 23.2843 30 15 30C6.71573 30 0 23.2843 0 15C0 6.71573 6.71573 0 15 0C23.2843 0 30 6.71573 30 15ZM12.9299 15.8956L5.76003 6.30908H11.286L15.9864 12.5939L21.8037 6.30908H23.4276L16.7119 13.5643L24.2853 23.69H18.7593L13.6557 16.8658L7.33878 23.69H5.71484L12.9299 15.8956ZM10.6867 7.50514H8.1481L19.3583 22.4939H21.8969L10.6867 7.50514Z" fill="#FFF4D8"/>
<path d="M205.701 9.00006C205.701 9.00006 205.408 6.9317 204.506 6.0235C203.363 4.82819 202.086 4.82233 201.5 4.75201C197.305 4.44733 191.006 4.44733 191.006 4.44733H190.994C190.994 4.44733 184.695 4.44733 180.5 4.75201C179.914 4.82233 178.637 4.82819 177.494 6.0235C176.592 6.9317 176.305 9.00006 176.305 9.00006C176.305 9.00006 176 11.4317 176 13.8575V16.1309C176 18.5567 176.299 20.9883 176.299 20.9883C176.299 20.9883 176.592 23.0567 177.488 23.9649C178.631 25.1602 180.131 25.1192 180.799 25.2481C183.201 25.4766 191 25.5469 191 25.5469C191 25.5469 197.305 25.5352 201.5 25.2364C202.086 25.1661 203.363 25.1602 204.506 23.9649C205.408 23.0567 205.701 20.9883 205.701 20.9883C205.701 20.9883 206 18.5626 206 16.1309V13.8575C206 11.4317 205.701 9.00006 205.701 9.00006ZM187.9 18.8907V10.459L196.004 14.6895L187.9 18.8907Z" fill="#FFF4D8"/>
<path d="M241.341 0H236.285V20.4347C236.285 22.8696 234.34 24.8696 231.92 24.8696C229.5 24.8696 227.556 22.8696 227.556 20.4347C227.556 18.0435 229.457 16.0869 231.791 16V10.8696C226.648 10.9565 222.5 15.1739 222.5 20.4347C222.5 25.7392 226.735 30 231.964 30C237.192 30 241.427 25.6957 241.427 20.4347V9.9565C243.328 11.3478 245.662 12.1739 248.125 12.2174V7.08696C244.322 6.95652 241.341 3.82608 241.341 0Z" fill="#FFF4D8"/>
<g clip-path="url(#clip2_1_108)">
<path fill-rule="evenodd" clip-rule="evenodd" d="M117.975 23.1885C117.988 22.9057 117.988 22.5492 117.988 22.3893L118 7.61066C118 7.43852 118 7.08197 117.988 6.81148C117.963 6.14754 117.902 5.28688 117.828 4.89344C117.705 4.29098 117.52 3.72541 117.287 3.2582C117.004 2.70492 116.648 2.21311 116.217 1.78279C115.787 1.35246 115.295 0.995902 114.742 0.713115C114.275 0.479508 113.709 0.295082 113.119 0.172131C112.713 0.0860656 111.852 0.0368852 111.176 0.0122951C110.893 0 110.537 0 110.377 0H95.6107C95.4508 0 95.0943 0 94.8238 0.0122951C94.1475 0.0368852 93.2869 0.0860656 92.8934 0.172131C92.291 0.295082 91.7254 0.479508 91.2582 0.713115C90.7049 0.995902 90.2131 1.35246 89.7828 1.78279C89.3525 2.21311 88.9959 2.70492 88.7131 3.2582C88.4795 3.72541 88.2951 4.29098 88.1721 4.88115C88.0984 5.27459 88.0369 6.14754 88.0123 6.81148C88 7.09426 88 7.45082 88 7.61066V22.377V23.2008C88.0246 23.8648 88.0861 24.7254 88.1598 25.1189C88.2828 25.7213 88.4672 26.2869 88.7008 26.7541C88.9836 27.3074 89.3402 27.7992 89.7705 28.2295C90.2008 28.6598 90.6926 29.0164 91.2459 29.2992C91.7131 29.5328 92.2787 29.7172 92.8689 29.8402C93.2746 29.9262 94.1352 29.9754 94.8115 30C95.0943 30.0123 95.4508 30.0123 95.6107 30.0123H110.377C110.549 30.0123 110.906 30.0123 111.176 30C111.84 29.9754 112.701 29.9139 113.094 29.8402C113.697 29.7172 114.262 29.5328 114.73 29.2992C115.283 29.0164 115.775 28.6598 116.205 28.2295C116.635 27.7992 116.992 27.3074 117.275 26.7541C117.508 26.2869 117.693 25.7213 117.816 25.1311C117.902 24.7254 117.951 23.8648 117.975 23.1885ZM103.332 3.94669C106.209 3.94669 108.914 5.06554 110.943 7.09423C112.971 9.12292 114.09 11.8278 114.09 14.6926C114.09 20.6311 109.258 25.4508 103.332 25.4508C101.537 25.4508 99.7664 25.0082 98.1926 24.1475L92.4877 25.6475L94.0123 20.0778C93.0656 18.4549 92.5738 16.5983 92.5738 14.7049C92.5738 8.76636 97.4057 3.94669 103.332 3.94669ZM98.7828 22.4016C100.148 23.2131 101.721 23.6434 103.332 23.6434C108.262 23.6434 112.27 19.6352 112.27 14.6926C112.27 12.3073 111.336 10.0573 109.652 8.37292C107.967 6.68849 105.717 5.75406 103.332 5.75406C98.4016 5.75406 94.3934 9.76226 94.3934 14.6926C94.3934 16.377 94.8606 18.0246 95.7582 19.4508L95.9672 19.795L95.0697 23.0901L98.4508 22.2049L98.7828 22.4016ZM106.406 16.0696C106.652 16.1557 107.967 16.8073 108.238 16.9426C108.289 16.968 108.336 16.9913 108.381 17.013C108.574 17.1069 108.709 17.1724 108.779 17.2623C108.84 17.3729 108.84 17.9139 108.619 18.5409C108.385 19.168 107.316 19.7459 106.799 19.8196C106.332 19.8811 105.742 19.918 105.102 19.709C104.709 19.586 104.205 19.4262 103.566 19.1434C101.031 18.0441 99.3247 15.5833 99.02 15.1439C99.001 15.1164 98.9874 15.0969 98.9795 15.086C98.976 15.0813 98.972 15.0759 98.9675 15.0698C98.7958 14.8368 97.8852 13.6012 97.8852 12.3073C97.8852 11.0833 98.492 10.434 98.7744 10.1317C98.7955 10.1091 98.8148 10.0884 98.8319 10.0696C99.0779 9.79914 99.3606 9.73767 99.5451 9.73767C99.7295 9.73767 99.9016 9.73767 100.061 9.74996C100.082 9.75151 100.103 9.7517 100.125 9.75189C100.277 9.75323 100.47 9.75494 100.664 10.2172C100.764 10.456 100.929 10.8578 101.086 11.2391C101.276 11.7021 101.454 12.1348 101.488 12.209C101.561 12.3442 101.598 12.4918 101.512 12.6762C101.504 12.6923 101.497 12.7078 101.489 12.723C101.416 12.8694 101.364 12.9739 101.242 13.1188C101.183 13.1834 101.121 13.2574 101.06 13.3305C100.982 13.4244 100.905 13.5169 100.836 13.586C100.701 13.7213 100.553 13.8688 100.713 14.1393L100.722 14.154C100.893 14.4295 101.428 15.2957 102.213 15.9959C103.076 16.7562 103.819 17.0786 104.198 17.243C104.272 17.2753 104.333 17.3015 104.377 17.3237C104.648 17.459 104.795 17.4467 104.955 17.2623C105.115 17.0778 105.619 16.4754 105.803 16.2049C105.975 15.9344 106.16 15.9836 106.406 16.0696Z" fill="#FFF4D8"/>
</g>
<defs>
<clipPath id="clip0_1_108">
<rect width="30" height="30" fill="white" transform="translate(44)"/>
</clipPath>
<clipPath id="clip1_1_108">
<rect width="30" height="30" fill="white" transform="translate(132)"/>
</clipPath>
<clipPath id="clip2_1_108">
<rect width="30" height="30" fill="white" transform="translate(88)"/>
</clipPath>
</defs>
</svg>
